<svg width="31" height="31" viewBox="0 0 31 31" fill="none" xmlns="http://www.w3.org/2000/svg">
<path d="M12.0367 10.5884L9.13044 19.6559C9.1132 19.7063 9.10815 19.7601 9.11573 19.8128C9.1233 19.8655 9.14327 19.9157 9.174 19.9592C9.20474 20.0027 9.24535 20.0383 9.29251 20.063C9.33967 20.0878 9.39203 20.101 9.44529 20.1016H10.259C10.3317 20.1013 10.4023 20.0776 10.4603 20.034C10.5184 19.9903 10.5608 19.9291 10.5811 19.8594L11.0365 18.4062H15.0156L14.9599 18.3166L15.4588 19.8594C15.4792 19.9291 15.5216 19.9903 15.5796 20.034C15.6377 20.0776 15.7083 20.1013 15.7809 20.1016H16.5947C16.648 20.1019 16.7006 20.0895 16.7482 20.0655C16.7958 20.0415 16.837 20.0066 16.8684 19.9635C16.8999 19.9205 16.9207 19.8706 16.9291 19.818C16.9375 19.7653 16.9333 19.7115 16.9168 19.6608L14.0105 10.5933C13.9898 10.5238 13.9473 10.4627 13.8894 10.4191C13.8314 10.3755 13.7609 10.3517 13.6884 10.3511H12.3515C12.2808 10.3525 12.2123 10.3762 12.1557 10.4188C12.0992 10.4615 12.0576 10.5208 12.0367 10.5884ZM11.5208 16.9531L13.02 12.2862L14.5312 16.9531H11.5208Z" fill="white"/>
<path d="M20.2469 10.3535H19.4719C19.2846 10.3535 19.1328 10.5053 19.1328 10.6926V19.7601C19.1328 19.9473 19.2846 20.0991 19.4719 20.0991H20.2469C20.4341 20.0991 20.5859 19.9473 20.5859 19.7601V10.6926C20.5859 10.5053 20.4341 10.3535 20.2469 10.3535Z" fill="white"/>
<path d="M16.2895 23.7344H9.24188C8.71774 23.7344 8.21507 23.5262 7.84445 23.1555C7.47384 22.7849 7.26562 22.2823 7.26562 21.7581V9.24187C7.26562 8.71774 7.47384 8.21507 7.84445 7.84445C8.21507 7.47383 8.71774 7.26562 9.24188 7.26562H21.7581C22.2823 7.26562 22.7849 7.47383 23.1555 7.84445C23.5262 8.21507 23.7344 8.71774 23.7344 9.24187V15.5C23.7388 15.6321 23.7952 15.7571 23.8914 15.8479C23.9876 15.9386 24.1157 15.9876 24.2478 15.9844C24.6602 15.9831 25.0673 16.0776 25.437 16.2605C25.5137 16.2998 25.5993 16.3186 25.6855 16.315C25.7717 16.3115 25.8554 16.2856 25.9286 16.24C26.0018 16.1943 26.0619 16.1305 26.1031 16.0547C26.1442 15.979 26.1651 15.8938 26.1635 15.8076V9.24187C26.1635 8.66369 26.0495 8.09118 25.828 7.5571C25.6066 7.02303 25.2819 6.53786 24.8728 6.12936C24.4636 5.72086 23.9779 5.39705 23.4434 5.17645C22.909 4.95585 22.3363 4.84279 21.7581 4.84375H9.24188C8.07542 4.84375 6.95674 5.30712 6.13193 6.13193C5.30712 6.95674 4.84375 8.07542 4.84375 9.24187V21.7581C4.84375 22.9246 5.30712 24.0433 6.13193 24.8681C6.95674 25.6929 8.07542 26.1562 9.24188 26.1562H17.3067C17.4058 26.1564 17.5027 26.1271 17.5852 26.0722C17.6677 26.0173 17.7321 25.9391 17.7701 25.8476C17.8082 25.7562 17.8184 25.6554 17.7993 25.5582C17.7801 25.461 17.7326 25.3716 17.6627 25.3013C17.2859 24.9556 16.9806 24.5392 16.7642 24.0759C16.7295 23.9772 16.6654 23.8916 16.5805 23.8305C16.4957 23.7694 16.3941 23.7359 16.2895 23.7344Z" fill="white"/>
<path d="M27.06 24.6547L29.2543 23.7901C29.2994 23.7722 29.3382 23.7412 29.3655 23.701C29.3928 23.6609 29.4074 23.6134 29.4074 23.5648C29.4074 23.5163 29.3928 23.4688 29.3655 23.4287C29.3382 23.3885 29.2994 23.3575 29.2543 23.3396L27.06 22.475C26.6716 22.3214 26.3188 22.0898 26.0235 21.7945C25.7281 21.4991 25.4965 21.1463 25.3429 20.7579L24.4783 18.5782C24.4604 18.5331 24.4293 18.4945 24.3892 18.4673C24.349 18.4401 24.3016 18.4256 24.2531 18.4256C24.2046 18.4256 24.1572 18.4401 24.117 18.4673C24.0769 18.4945 24.0458 18.5331 24.0279 18.5782L23.1632 20.7579C23.01 21.1465 22.7786 21.4995 22.4832 21.7949C22.1878 22.0903 21.8348 22.3218 21.4461 22.475L19.2665 23.3396C19.2213 23.3575 19.1825 23.3885 19.1552 23.4287C19.1279 23.4688 19.1133 23.5163 19.1133 23.5648C19.1133 23.6134 19.1279 23.6609 19.1552 23.701C19.1825 23.7412 19.2213 23.7722 19.2665 23.7901L21.4461 24.6547C21.8348 24.8079 22.1878 25.0394 22.4832 25.3348C22.7786 25.6302 23.01 25.9832 23.1632 26.3718L24.0279 28.5515C24.0454 28.597 24.0763 28.6362 24.1165 28.6638C24.1567 28.6915 24.2043 28.7063 24.2531 28.7065C24.3019 28.7063 24.3495 28.6915 24.3897 28.6638C24.4299 28.6362 24.4608 28.597 24.4783 28.5515L25.3429 26.3718C25.4965 25.9834 25.7281 25.6306 26.0235 25.3352C26.3188 25.0399 26.6716 24.8083 27.06 24.6547Z" fill="white"/>
</svg>
